<mxfile host="app.diagrams.net" modified="2021-03-16T18:46:18.572Z" agent="5.0 (Windows NT 10.0; Win64; x64) AppleWebKit/537.36 (KHTML, like Gecko) Chrome/89.0.4389.82 Safari/537.36" etag="Se4FY8yJOekj3GmWpJEf" version="14.4.8" type="github">
  <diagram id="T1ZKbO6OvFp7OE-Hn8kQ" name="Page-1">
    <mxGraphModel dx="1108" dy="450" grid="1" gridSize="10" guides="1" tooltips="1" connect="1" arrows="1" fold="1" page="1" pageScale="1" pageWidth="827" pageHeight="1169" math="0" shadow="0">
      <root>
        <mxCell id="0" />
        <mxCell id="1" parent="0" />
        <mxCell id="tkZ1fv5aqk3dEGbZUyPK-1" value="Empresa" style="whiteSpace=wrap;html=1;align=center;" parent="1" vertex="1">
          <mxGeometry x="150" y="62" width="100" height="40" as="geometry" />
        </mxCell>
        <mxCell id="tkZ1fv5aqk3dEGbZUyPK-2" value="Pessoa" style="whiteSpace=wrap;html=1;align=center;" parent="1" vertex="1">
          <mxGeometry x="617" y="63" width="100" height="40" as="geometry" />
        </mxCell>
        <mxCell id="tkZ1fv5aqk3dEGbZUyPK-3" value="Organizadora&lt;span style=&quot;color: rgba(0 , 0 , 0 , 0) ; font-family: monospace ; font-size: 0px&quot;&gt;%3CmxGraphModel%3E%3Croot%3E%3CmxCell%20id%3D%220%22%2F%3E%3CmxCell%20id%3D%221%22%20parent%3D%220%22%2F%3E%3CmxCell%20id%3D%222%22%20value%3D%22Empresa%22%20style%3D%22whiteSpace%3Dwrap%3Bhtml%3D1%3Balign%3Dcenter%3B%22%20vertex%3D%221%22%20parent%3D%221%22%3E%3CmxGeometry%20x%3D%2270%22%20y%3D%22110%22%20width%3D%22100%22%20height%3D%2240%22%20as%3D%22geometry%22%2F%3E%3C%2FmxCell%3E%3C%2Froot%3E%3C%2FmxGraphModel%3E&lt;/span&gt;" style="whiteSpace=wrap;html=1;align=center;" parent="1" vertex="1">
          <mxGeometry y="193" width="100" height="30" as="geometry" />
        </mxCell>
        <mxCell id="tkZ1fv5aqk3dEGbZUyPK-4" value="Patrocinadora" style="whiteSpace=wrap;html=1;align=center;" parent="1" vertex="1">
          <mxGeometry x="100" y="193" width="100" height="30" as="geometry" />
        </mxCell>
        <mxCell id="tkZ1fv5aqk3dEGbZUyPK-5" value="Promotora" style="whiteSpace=wrap;html=1;align=center;" parent="1" vertex="1">
          <mxGeometry x="200" y="193" width="100" height="30" as="geometry" />
        </mxCell>
        <mxCell id="tkZ1fv5aqk3dEGbZUyPK-6" value="Prestadora de serviços" style="whiteSpace=wrap;html=1;align=center;" parent="1" vertex="1">
          <mxGeometry x="300" y="193" width="100" height="30" as="geometry" />
        </mxCell>
        <mxCell id="tkZ1fv5aqk3dEGbZUyPK-10" value="CNPJ" style="ellipse;whiteSpace=wrap;html=1;align=center;fontStyle=4;" parent="1" vertex="1">
          <mxGeometry x="70" y="43" width="75" height="30" as="geometry" />
        </mxCell>
        <mxCell id="tkZ1fv5aqk3dEGbZUyPK-11" value="CPF" style="ellipse;whiteSpace=wrap;html=1;align=center;fontStyle=4;" parent="1" vertex="1">
          <mxGeometry x="590" y="21.5" width="75" height="30" as="geometry" />
        </mxCell>
        <mxCell id="tkZ1fv5aqk3dEGbZUyPK-13" value="Nome" style="ellipse;whiteSpace=wrap;html=1;align=center;" parent="1" vertex="1">
          <mxGeometry x="150" y="23" width="75" height="30" as="geometry" />
        </mxCell>
        <mxCell id="tkZ1fv5aqk3dEGbZUyPK-16" value="Nome" style="ellipse;whiteSpace=wrap;html=1;align=center;" parent="1" vertex="1">
          <mxGeometry x="665" y="10" width="75" height="30" as="geometry" />
        </mxCell>
        <mxCell id="tkZ1fv5aqk3dEGbZUyPK-17" value="" style="endArrow=none;html=1;rounded=0;entryX=0;entryY=0.5;entryDx=0;entryDy=0;" parent="1" target="tkZ1fv5aqk3dEGbZUyPK-2" edge="1">
          <mxGeometry relative="1" as="geometry">
            <mxPoint x="250" y="82.5" as="sourcePoint" />
            <mxPoint x="410" y="82.5" as="targetPoint" />
          </mxGeometry>
        </mxCell>
        <mxCell id="tkZ1fv5aqk3dEGbZUyPK-7" value="Associada" style="shape=rhombus;perimeter=rhombusPerimeter;whiteSpace=wrap;html=1;align=center;" parent="1" vertex="1">
          <mxGeometry x="350" y="58" width="100" height="50" as="geometry" />
        </mxCell>
        <mxCell id="tkZ1fv5aqk3dEGbZUyPK-18" value="(0,N)" style="text;html=1;align=center;verticalAlign=middle;resizable=0;points=[];autosize=1;" parent="1" vertex="1">
          <mxGeometry x="250" y="63" width="40" height="20" as="geometry" />
        </mxCell>
        <mxCell id="tkZ1fv5aqk3dEGbZUyPK-19" value="(0,1)" style="text;html=1;align=center;verticalAlign=middle;resizable=0;points=[];autosize=1;" parent="1" vertex="1">
          <mxGeometry x="577" y="63" width="40" height="20" as="geometry" />
        </mxCell>
        <mxCell id="tkZ1fv5aqk3dEGbZUyPK-20" value="d" style="ellipse;whiteSpace=wrap;html=1;aspect=fixed;" parent="1" vertex="1">
          <mxGeometry x="767" y="83" width="30" height="30" as="geometry" />
        </mxCell>
        <mxCell id="tkZ1fv5aqk3dEGbZUyPK-21" value="Estudante" style="whiteSpace=wrap;html=1;align=center;" parent="1" vertex="1">
          <mxGeometry x="727" y="118" width="100" height="30" as="geometry" />
        </mxCell>
        <mxCell id="tkZ1fv5aqk3dEGbZUyPK-22" value="Profissional" style="whiteSpace=wrap;html=1;align=center;" parent="1" vertex="1">
          <mxGeometry x="727" y="43" width="100" height="30" as="geometry" />
        </mxCell>
        <mxCell id="tkZ1fv5aqk3dEGbZUyPK-24" value="" style="endArrow=none;html=1;rounded=0;entryX=1;entryY=0.75;entryDx=0;entryDy=0;exitX=0;exitY=0.5;exitDx=0;exitDy=0;" parent="1" source="tkZ1fv5aqk3dEGbZUyPK-20" target="tkZ1fv5aqk3dEGbZUyPK-2" edge="1">
          <mxGeometry relative="1" as="geometry">
            <mxPoint x="367" y="143" as="sourcePoint" />
            <mxPoint x="667" y="143.5" as="targetPoint" />
          </mxGeometry>
        </mxCell>
        <mxCell id="tkZ1fv5aqk3dEGbZUyPK-25" value="" style="endArrow=none;html=1;rounded=0;entryX=0;entryY=1;entryDx=0;entryDy=0;exitX=0.5;exitY=0;exitDx=0;exitDy=0;" parent="1" source="tkZ1fv5aqk3dEGbZUyPK-27" target="tkZ1fv5aqk3dEGbZUyPK-2" edge="1">
          <mxGeometry relative="1" as="geometry">
            <mxPoint x="547" y="203" as="sourcePoint" />
            <mxPoint x="627" y="93" as="targetPoint" />
          </mxGeometry>
        </mxCell>
        <mxCell id="tkZ1fv5aqk3dEGbZUyPK-27" value="Inscrição" style="shape=rhombus;perimeter=rhombusPerimeter;whiteSpace=wrap;html=1;align=center;" parent="1" vertex="1">
          <mxGeometry x="554.5" y="203" width="120" height="60" as="geometry" />
        </mxCell>
        <mxCell id="tkZ1fv5aqk3dEGbZUyPK-29" value="" style="endArrow=none;html=1;rounded=0;entryX=1;entryY=1;entryDx=0;entryDy=0;exitX=0.75;exitY=0;exitDx=0;exitDy=0;" parent="1" source="tkZ1fv5aqk3dEGbZUyPK-21" target="tkZ1fv5aqk3dEGbZUyPK-20" edge="1">
          <mxGeometry relative="1" as="geometry">
            <mxPoint x="557" y="203" as="sourcePoint" />
            <mxPoint x="627" y="103" as="targetPoint" />
          </mxGeometry>
        </mxCell>
        <mxCell id="tkZ1fv5aqk3dEGbZUyPK-30" value="" style="endArrow=none;html=1;rounded=0;entryX=1;entryY=0;entryDx=0;entryDy=0;exitX=0.75;exitY=1;exitDx=0;exitDy=0;" parent="1" source="tkZ1fv5aqk3dEGbZUyPK-22" target="tkZ1fv5aqk3dEGbZUyPK-20" edge="1">
          <mxGeometry relative="1" as="geometry">
            <mxPoint x="677" y="148" as="sourcePoint" />
            <mxPoint x="721.3933982822018" y="133.60660171779818" as="targetPoint" />
          </mxGeometry>
        </mxCell>
        <mxCell id="tkZ1fv5aqk3dEGbZUyPK-31" value="o" style="ellipse;whiteSpace=wrap;html=1;aspect=fixed;" parent="1" vertex="1">
          <mxGeometry x="185" y="133" width="30" height="30" as="geometry" />
        </mxCell>
        <mxCell id="tkZ1fv5aqk3dEGbZUyPK-32" value="" style="endArrow=none;html=1;rounded=0;exitX=0.5;exitY=0;exitDx=0;exitDy=0;entryX=0;entryY=1;entryDx=0;entryDy=0;" parent="1" source="tkZ1fv5aqk3dEGbZUyPK-4" target="tkZ1fv5aqk3dEGbZUyPK-31" edge="1">
          <mxGeometry relative="1" as="geometry">
            <mxPoint x="145" y="177.39" as="sourcePoint" />
            <mxPoint x="189" y="163" as="targetPoint" />
          </mxGeometry>
        </mxCell>
        <mxCell id="tkZ1fv5aqk3dEGbZUyPK-34" value="" style="endArrow=none;html=1;rounded=0;exitX=0.5;exitY=0;exitDx=0;exitDy=0;entryX=0;entryY=0.5;entryDx=0;entryDy=0;" parent="1" source="tkZ1fv5aqk3dEGbZUyPK-3" target="tkZ1fv5aqk3dEGbZUyPK-31" edge="1">
          <mxGeometry relative="1" as="geometry">
            <mxPoint x="160" y="203" as="sourcePoint" />
            <mxPoint x="199" y="173" as="targetPoint" />
          </mxGeometry>
        </mxCell>
        <mxCell id="tkZ1fv5aqk3dEGbZUyPK-35" value="" style="endArrow=none;html=1;rounded=0;exitX=0.5;exitY=0;exitDx=0;exitDy=0;entryX=1;entryY=0.5;entryDx=0;entryDy=0;" parent="1" source="tkZ1fv5aqk3dEGbZUyPK-6" target="tkZ1fv5aqk3dEGbZUyPK-31" edge="1">
          <mxGeometry relative="1" as="geometry">
            <mxPoint x="60" y="203" as="sourcePoint" />
            <mxPoint x="195" y="158" as="targetPoint" />
          </mxGeometry>
        </mxCell>
        <mxCell id="tkZ1fv5aqk3dEGbZUyPK-36" value="" style="endArrow=none;html=1;rounded=0;exitX=0.5;exitY=0;exitDx=0;exitDy=0;entryX=1;entryY=1;entryDx=0;entryDy=0;" parent="1" source="tkZ1fv5aqk3dEGbZUyPK-5" target="tkZ1fv5aqk3dEGbZUyPK-31" edge="1">
          <mxGeometry relative="1" as="geometry">
            <mxPoint x="360" y="203" as="sourcePoint" />
            <mxPoint x="225" y="158" as="targetPoint" />
          </mxGeometry>
        </mxCell>
        <mxCell id="tkZ1fv5aqk3dEGbZUyPK-37" value="" style="endArrow=none;html=1;rounded=0;exitX=0.5;exitY=0;exitDx=0;exitDy=0;entryX=0.5;entryY=1;entryDx=0;entryDy=0;" parent="1" source="tkZ1fv5aqk3dEGbZUyPK-31" target="tkZ1fv5aqk3dEGbZUyPK-1" edge="1">
          <mxGeometry relative="1" as="geometry">
            <mxPoint x="260" y="203" as="sourcePoint" />
            <mxPoint x="220.60660171779818" y="168.60660171779818" as="targetPoint" />
          </mxGeometry>
        </mxCell>
        <mxCell id="tkZ1fv5aqk3dEGbZUyPK-39" value="Descrição" style="ellipse;whiteSpace=wrap;html=1;align=center;" parent="1" vertex="1">
          <mxGeometry x="752" y="301.5" width="75" height="30" as="geometry" />
        </mxCell>
        <mxCell id="tkZ1fv5aqk3dEGbZUyPK-40" value="(0,N)" style="text;html=1;align=center;verticalAlign=middle;resizable=0;points=[];autosize=1;" parent="1" vertex="1">
          <mxGeometry x="612" y="103" width="40" height="20" as="geometry" />
        </mxCell>
        <mxCell id="tkZ1fv5aqk3dEGbZUyPK-42" value="u" style="ellipse;whiteSpace=wrap;html=1;aspect=fixed;" parent="1" vertex="1">
          <mxGeometry x="467" y="143" width="30" height="30" as="geometry" />
        </mxCell>
        <mxCell id="tkZ1fv5aqk3dEGbZUyPK-43" value="" style="endArrow=none;html=1;rounded=0;exitX=1;exitY=0;exitDx=0;exitDy=0;entryX=0;entryY=0.75;entryDx=0;entryDy=0;" parent="1" source="tkZ1fv5aqk3dEGbZUyPK-42" target="tkZ1fv5aqk3dEGbZUyPK-2" edge="1">
          <mxGeometry relative="1" as="geometry">
            <mxPoint x="360" y="203" as="sourcePoint" />
            <mxPoint x="225" y="158" as="targetPoint" />
          </mxGeometry>
        </mxCell>
        <mxCell id="tkZ1fv5aqk3dEGbZUyPK-44" value="" style="endArrow=none;html=1;rounded=0;exitX=0;exitY=0.5;exitDx=0;exitDy=0;entryX=0.75;entryY=0;entryDx=0;entryDy=0;" parent="1" source="tkZ1fv5aqk3dEGbZUyPK-42" target="tkZ1fv5aqk3dEGbZUyPK-6" edge="1">
          <mxGeometry relative="1" as="geometry">
            <mxPoint x="445.6066017177982" y="162.39339828220182" as="sourcePoint" />
            <mxPoint x="627" y="103" as="targetPoint" />
          </mxGeometry>
        </mxCell>
        <mxCell id="tkZ1fv5aqk3dEGbZUyPK-45" value="" style="endArrow=none;html=1;rounded=0;exitX=0.5;exitY=1;exitDx=0;exitDy=0;entryX=0.5;entryY=0;entryDx=0;entryDy=0;" parent="1" source="tkZ1fv5aqk3dEGbZUyPK-57" edge="1">
          <mxGeometry relative="1" as="geometry">
            <mxPoint x="477" y="153" as="sourcePoint" />
            <mxPoint x="482" y="433" as="targetPoint" />
          </mxGeometry>
        </mxCell>
        <mxCell id="tkZ1fv5aqk3dEGbZUyPK-46" value="Resposabiliza" style="shape=rhombus;perimeter=rhombusPerimeter;whiteSpace=wrap;html=1;align=center;" parent="1" vertex="1">
          <mxGeometry x="422" y="323" width="120" height="60" as="geometry" />
        </mxCell>
        <mxCell id="tkZ1fv5aqk3dEGbZUyPK-47" value="Descrição" style="ellipse;whiteSpace=wrap;html=1;align=center;" parent="1" vertex="1">
          <mxGeometry x="347" y="438" width="75" height="30" as="geometry" />
        </mxCell>
        <mxCell id="tkZ1fv5aqk3dEGbZUyPK-48" value="Custo" style="ellipse;whiteSpace=wrap;html=1;align=center;" parent="1" vertex="1">
          <mxGeometry x="369.5" y="483" width="75" height="30" as="geometry" />
        </mxCell>
        <mxCell id="tkZ1fv5aqk3dEGbZUyPK-49" value="Estado" style="ellipse;whiteSpace=wrap;html=1;align=center;" parent="1" vertex="1">
          <mxGeometry x="457" y="483" width="75" height="30" as="geometry" />
        </mxCell>
        <mxCell id="tkZ1fv5aqk3dEGbZUyPK-50" value="" style="endArrow=none;html=1;rounded=0;exitX=0;exitY=0.5;exitDx=0;exitDy=0;entryX=1;entryY=0.5;entryDx=0;entryDy=0;" parent="1" edge="1">
          <mxGeometry relative="1" as="geometry">
            <mxPoint x="432" y="453" as="sourcePoint" />
            <mxPoint x="422" y="453" as="targetPoint" />
          </mxGeometry>
        </mxCell>
        <mxCell id="tkZ1fv5aqk3dEGbZUyPK-51" value="" style="endArrow=none;html=1;rounded=0;exitX=0.25;exitY=1;exitDx=0;exitDy=0;entryX=1;entryY=0;entryDx=0;entryDy=0;" parent="1" target="tkZ1fv5aqk3dEGbZUyPK-48" edge="1">
          <mxGeometry relative="1" as="geometry">
            <mxPoint x="457" y="473" as="sourcePoint" />
            <mxPoint x="432" y="463" as="targetPoint" />
          </mxGeometry>
        </mxCell>
        <mxCell id="tkZ1fv5aqk3dEGbZUyPK-52" value="" style="endArrow=none;html=1;rounded=0;exitX=0.5;exitY=1;exitDx=0;exitDy=0;entryX=0.5;entryY=0;entryDx=0;entryDy=0;" parent="1" target="tkZ1fv5aqk3dEGbZUyPK-49" edge="1">
          <mxGeometry relative="1" as="geometry">
            <mxPoint x="482" y="473" as="sourcePoint" />
            <mxPoint x="440.8379480147926" y="497.3224535075167" as="targetPoint" />
          </mxGeometry>
        </mxCell>
        <mxCell id="tkZ1fv5aqk3dEGbZUyPK-53" value="Data de término" style="ellipse;whiteSpace=wrap;html=1;align=center;" parent="1" vertex="1">
          <mxGeometry x="542" y="453" width="75" height="30" as="geometry" />
        </mxCell>
        <mxCell id="tkZ1fv5aqk3dEGbZUyPK-54" value="" style="endArrow=none;html=1;rounded=0;exitX=1;exitY=0.5;exitDx=0;exitDy=0;entryX=0;entryY=0.5;entryDx=0;entryDy=0;" parent="1" target="tkZ1fv5aqk3dEGbZUyPK-53" edge="1">
          <mxGeometry relative="1" as="geometry">
            <mxPoint x="532" y="458" as="sourcePoint" />
            <mxPoint x="525.8379480147926" y="467.3224535075167" as="targetPoint" />
          </mxGeometry>
        </mxCell>
        <mxCell id="tkZ1fv5aqk3dEGbZUyPK-55" value="" style="endArrow=none;html=1;rounded=0;exitX=0;exitY=0.25;exitDx=0;exitDy=0;entryX=1;entryY=1;entryDx=0;entryDy=0;" parent="1" source="tkZ1fv5aqk3dEGbZUyPK-1" target="tkZ1fv5aqk3dEGbZUyPK-10" edge="1">
          <mxGeometry relative="1" as="geometry">
            <mxPoint x="160" y="203" as="sourcePoint" />
            <mxPoint x="199.3933982822017" y="168.6066017177983" as="targetPoint" />
          </mxGeometry>
        </mxCell>
        <mxCell id="tkZ1fv5aqk3dEGbZUyPK-56" value="" style="endArrow=none;html=1;rounded=0;exitX=0.5;exitY=0;exitDx=0;exitDy=0;entryX=0.5;entryY=1;entryDx=0;entryDy=0;" parent="1" source="tkZ1fv5aqk3dEGbZUyPK-1" target="tkZ1fv5aqk3dEGbZUyPK-13" edge="1">
          <mxGeometry relative="1" as="geometry">
            <mxPoint x="160" y="83" as="sourcePoint" />
            <mxPoint x="144.3873094555379" y="63.456175899375864" as="targetPoint" />
          </mxGeometry>
        </mxCell>
        <mxCell id="tkZ1fv5aqk3dEGbZUyPK-57" value="Prestadora de serviços" style="whiteSpace=wrap;html=1;align=center;" parent="1" vertex="1">
          <mxGeometry x="432" y="243" width="100" height="30" as="geometry" />
        </mxCell>
        <mxCell id="tkZ1fv5aqk3dEGbZUyPK-58" value="" style="endArrow=none;html=1;rounded=0;exitX=0.5;exitY=1;exitDx=0;exitDy=0;entryX=0.5;entryY=0;entryDx=0;entryDy=0;" parent="1" source="tkZ1fv5aqk3dEGbZUyPK-42" target="tkZ1fv5aqk3dEGbZUyPK-57" edge="1">
          <mxGeometry relative="1" as="geometry">
            <mxPoint x="425" y="178" as="sourcePoint" />
            <mxPoint x="425" y="453" as="targetPoint" />
          </mxGeometry>
        </mxCell>
        <mxCell id="tkZ1fv5aqk3dEGbZUyPK-59" value="" style="endArrow=none;html=1;rounded=0;entryX=0;entryY=0;entryDx=0;entryDy=0;exitX=0.5;exitY=1;exitDx=0;exitDy=0;" parent="1" source="tkZ1fv5aqk3dEGbZUyPK-27" target="QeXtSOEKIecsUs-c_dBP-1" edge="1">
          <mxGeometry relative="1" as="geometry">
            <mxPoint x="607" y="213" as="sourcePoint" />
            <mxPoint x="617" y="293" as="targetPoint" />
          </mxGeometry>
        </mxCell>
        <mxCell id="tkZ1fv5aqk3dEGbZUyPK-60" value="(1,N)" style="text;html=1;align=center;verticalAlign=middle;resizable=0;points=[];autosize=1;" parent="1" vertex="1">
          <mxGeometry x="634.5" y="276.5" width="40" height="20" as="geometry" />
        </mxCell>
        <mxCell id="tkZ1fv5aqk3dEGbZUyPK-62" value="" style="endArrow=none;html=1;rounded=0;entryX=0.008;entryY=0.625;entryDx=0;entryDy=0;entryPerimeter=0;exitX=0;exitY=0.5;exitDx=0;exitDy=0;" parent="1" source="tkZ1fv5aqk3dEGbZUyPK-27" target="tkZ1fv5aqk3dEGbZUyPK-63" edge="1">
          <mxGeometry relative="1" as="geometry">
            <mxPoint x="580" y="220" as="sourcePoint" />
            <mxPoint x="690.0000000000016" y="233" as="targetPoint" />
          </mxGeometry>
        </mxCell>
        <mxCell id="tkZ1fv5aqk3dEGbZUyPK-63" value="Custo de inscrição" style="ellipse;whiteSpace=wrap;html=1;align=center;dashed=1;" parent="1" vertex="1">
          <mxGeometry x="487" y="193" width="73" height="30" as="geometry" />
        </mxCell>
        <mxCell id="QeXtSOEKIecsUs-c_dBP-1" value="Tarefa" style="shape=ext;margin=3;double=1;whiteSpace=wrap;html=1;align=center;" vertex="1" parent="1">
          <mxGeometry x="640" y="296.5" width="100" height="40" as="geometry" />
        </mxCell>
        <mxCell id="QeXtSOEKIecsUs-c_dBP-2" value="Serviço" style="shape=ext;margin=3;double=1;whiteSpace=wrap;html=1;align=center;" vertex="1" parent="1">
          <mxGeometry x="432" y="433" width="100" height="40" as="geometry" />
        </mxCell>
        <mxCell id="QeXtSOEKIecsUs-c_dBP-3" value="" style="endArrow=none;html=1;rounded=0;entryX=1;entryY=1;entryDx=0;entryDy=0;exitX=0.5;exitY=0;exitDx=0;exitDy=0;" edge="1" parent="1" source="tkZ1fv5aqk3dEGbZUyPK-2" target="tkZ1fv5aqk3dEGbZUyPK-11">
          <mxGeometry relative="1" as="geometry">
            <mxPoint x="330" y="63" as="sourcePoint" />
            <mxPoint x="490" y="63" as="targetPoint" />
          </mxGeometry>
        </mxCell>
        <mxCell id="QeXtSOEKIecsUs-c_dBP-4" value="" style="endArrow=none;html=1;rounded=0;entryX=0.5;entryY=1;entryDx=0;entryDy=0;exitX=0.75;exitY=0;exitDx=0;exitDy=0;" edge="1" parent="1" source="tkZ1fv5aqk3dEGbZUyPK-2" target="tkZ1fv5aqk3dEGbZUyPK-16">
          <mxGeometry relative="1" as="geometry">
            <mxPoint x="652" y="73" as="sourcePoint" />
            <mxPoint x="650.8379480147985" y="58.67754649248582" as="targetPoint" />
          </mxGeometry>
        </mxCell>
        <mxCell id="QeXtSOEKIecsUs-c_dBP-5" value="" style="endArrow=none;html=1;rounded=0;entryX=1;entryY=0.25;entryDx=0;entryDy=0;exitX=0;exitY=0.5;exitDx=0;exitDy=0;" edge="1" parent="1" source="tkZ1fv5aqk3dEGbZUyPK-39" target="QeXtSOEKIecsUs-c_dBP-1">
          <mxGeometry relative="1" as="geometry">
            <mxPoint x="685" y="86.5" as="sourcePoint" />
            <mxPoint x="683.8379480147985" y="72.17754649248582" as="targetPoint" />
          </mxGeometry>
        </mxCell>
        <mxCell id="QeXtSOEKIecsUs-c_dBP-6" value="Valor" style="ellipse;whiteSpace=wrap;html=1;align=center;" vertex="1" parent="1">
          <mxGeometry x="250" y="233" width="75" height="30" as="geometry" />
        </mxCell>
        <mxCell id="QeXtSOEKIecsUs-c_dBP-7" value="Estado" style="ellipse;whiteSpace=wrap;html=1;align=center;" vertex="1" parent="1">
          <mxGeometry x="338.5" y="243" width="71.5" height="27" as="geometry" />
        </mxCell>
        <mxCell id="QeXtSOEKIecsUs-c_dBP-9" value="Data" style="ellipse;whiteSpace=wrap;html=1;align=center;" vertex="1" parent="1">
          <mxGeometry x="280" y="268" width="75" height="30" as="geometry" />
        </mxCell>
        <mxCell id="QeXtSOEKIecsUs-c_dBP-10" value="" style="endArrow=none;html=1;rounded=0;entryX=0.75;entryY=1;entryDx=0;entryDy=0;exitX=0.5;exitY=0;exitDx=0;exitDy=0;" edge="1" parent="1" source="QeXtSOEKIecsUs-c_dBP-7" target="tkZ1fv5aqk3dEGbZUyPK-6">
          <mxGeometry relative="1" as="geometry">
            <mxPoint x="607" y="273" as="sourcePoint" />
            <mxPoint x="627" y="303" as="targetPoint" />
          </mxGeometry>
        </mxCell>
        <mxCell id="QeXtSOEKIecsUs-c_dBP-11" value="" style="endArrow=none;html=1;rounded=0;entryX=0.5;entryY=1;entryDx=0;entryDy=0;exitX=0.5;exitY=0;exitDx=0;exitDy=0;" edge="1" parent="1" source="QeXtSOEKIecsUs-c_dBP-9" target="tkZ1fv5aqk3dEGbZUyPK-6">
          <mxGeometry relative="1" as="geometry">
            <mxPoint x="397.5" y="263" as="sourcePoint" />
            <mxPoint x="385" y="233" as="targetPoint" />
          </mxGeometry>
        </mxCell>
        <mxCell id="QeXtSOEKIecsUs-c_dBP-12" value="" style="endArrow=none;html=1;rounded=0;entryX=0.25;entryY=1;entryDx=0;entryDy=0;exitX=1;exitY=0;exitDx=0;exitDy=0;" edge="1" parent="1" source="QeXtSOEKIecsUs-c_dBP-6" target="tkZ1fv5aqk3dEGbZUyPK-6">
          <mxGeometry relative="1" as="geometry">
            <mxPoint x="333.83794801479826" y="277.3224535075142" as="sourcePoint" />
            <mxPoint x="360" y="233" as="targetPoint" />
          </mxGeometry>
        </mxCell>
        <mxCell id="QeXtSOEKIecsUs-c_dBP-14" value="(1,N)" style="text;html=1;align=center;verticalAlign=middle;resizable=0;points=[];autosize=1;" vertex="1" parent="1">
          <mxGeometry x="444.5" y="273" width="40" height="20" as="geometry" />
        </mxCell>
        <mxCell id="QeXtSOEKIecsUs-c_dBP-15" value="(1,1)" style="text;html=1;align=center;verticalAlign=middle;resizable=0;points=[];autosize=1;" vertex="1" parent="1">
          <mxGeometry x="444.5" y="413" width="40" height="20" as="geometry" />
        </mxCell>
        <mxCell id="QeXtSOEKIecsUs-c_dBP-16" value="Hierarquia" style="shape=rhombus;perimeter=rhombusPerimeter;whiteSpace=wrap;html=1;align=center;" vertex="1" parent="1">
          <mxGeometry x="630" y="363.5" width="120" height="60" as="geometry" />
        </mxCell>
        <mxCell id="QeXtSOEKIecsUs-c_dBP-17" value="" style="endArrow=none;html=1;rounded=0;entryX=0;entryY=1;entryDx=0;entryDy=0;exitX=0;exitY=0.5;exitDx=0;exitDy=0;" edge="1" parent="1" source="QeXtSOEKIecsUs-c_dBP-16" target="QeXtSOEKIecsUs-c_dBP-1">
          <mxGeometry relative="1" as="geometry">
            <mxPoint x="463" y="333.5" as="sourcePoint" />
            <mxPoint x="623" y="333.5" as="targetPoint" />
          </mxGeometry>
        </mxCell>
        <mxCell id="QeXtSOEKIecsUs-c_dBP-18" value="" style="endArrow=none;html=1;rounded=0;entryX=1;entryY=1;entryDx=0;entryDy=0;exitX=1;exitY=0.5;exitDx=0;exitDy=0;" edge="1" parent="1" source="QeXtSOEKIecsUs-c_dBP-16" target="QeXtSOEKIecsUs-c_dBP-1">
          <mxGeometry relative="1" as="geometry">
            <mxPoint x="640" y="403.5" as="sourcePoint" />
            <mxPoint x="650" y="346.5" as="targetPoint" />
          </mxGeometry>
        </mxCell>
        <mxCell id="QeXtSOEKIecsUs-c_dBP-19" value="Supertarefa" style="text;html=1;align=center;verticalAlign=middle;resizable=0;points=[];autosize=1;" vertex="1" parent="1">
          <mxGeometry x="560" y="360" width="80" height="20" as="geometry" />
        </mxCell>
        <mxCell id="QeXtSOEKIecsUs-c_dBP-20" value="Subtarefa" style="text;html=1;align=center;verticalAlign=middle;resizable=0;points=[];autosize=1;" vertex="1" parent="1">
          <mxGeometry x="740" y="360" width="70" height="20" as="geometry" />
        </mxCell>
        <mxCell id="QeXtSOEKIecsUs-c_dBP-21" value="(0,1)" style="text;html=1;align=center;verticalAlign=middle;resizable=0;points=[];autosize=1;" vertex="1" parent="1">
          <mxGeometry x="594.5" y="370" width="40" height="20" as="geometry" />
        </mxCell>
        <mxCell id="QeXtSOEKIecsUs-c_dBP-22" value="(0,N)" style="text;html=1;align=center;verticalAlign=middle;resizable=0;points=[];autosize=1;" vertex="1" parent="1">
          <mxGeometry x="747" y="370" width="40" height="20" as="geometry" />
        </mxCell>
        <mxCell id="QeXtSOEKIecsUs-c_dBP-23" value="Responsabilizar" style="shape=rhombus;perimeter=rhombusPerimeter;whiteSpace=wrap;html=1;align=center;" vertex="1" parent="1">
          <mxGeometry x="680" y="203" width="120" height="60" as="geometry" />
        </mxCell>
        <mxCell id="QeXtSOEKIecsUs-c_dBP-24" value="" style="shape=link;html=1;rounded=0;entryX=0.75;entryY=1;entryDx=0;entryDy=0;exitX=0.5;exitY=0;exitDx=0;exitDy=0;" edge="1" parent="1" source="QeXtSOEKIecsUs-c_dBP-23" target="tkZ1fv5aqk3dEGbZUyPK-2">
          <mxGeometry relative="1" as="geometry">
            <mxPoint x="440" y="160" as="sourcePoint" />
            <mxPoint x="600" y="160" as="targetPoint" />
          </mxGeometry>
        </mxCell>
        <mxCell id="QeXtSOEKIecsUs-c_dBP-26" value="" style="shape=link;html=1;rounded=0;exitX=0.5;exitY=1;exitDx=0;exitDy=0;entryX=1;entryY=0;entryDx=0;entryDy=0;" edge="1" parent="1" source="QeXtSOEKIecsUs-c_dBP-23" target="QeXtSOEKIecsUs-c_dBP-1">
          <mxGeometry relative="1" as="geometry">
            <mxPoint x="750" y="213" as="sourcePoint" />
            <mxPoint x="720" y="290" as="targetPoint" />
          </mxGeometry>
        </mxCell>
        <mxCell id="QeXtSOEKIecsUs-c_dBP-29" value="(0,1)" style="text;html=1;align=center;verticalAlign=middle;resizable=0;points=[];autosize=1;" vertex="1" parent="1">
          <mxGeometry x="692" y="98" width="40" height="20" as="geometry" />
        </mxCell>
        <mxCell id="QeXtSOEKIecsUs-c_dBP-30" value="(1,1)" style="text;html=1;align=center;verticalAlign=middle;resizable=0;points=[];autosize=1;" vertex="1" parent="1">
          <mxGeometry x="700" y="276.5" width="40" height="20" as="geometry" />
        </mxCell>
        <mxCell id="QeXtSOEKIecsUs-c_dBP-32" value="Nº Inscrição" style="ellipse;whiteSpace=wrap;html=1;align=center;fontStyle=4;" vertex="1" parent="1">
          <mxGeometry x="630" y="176" width="67.5" height="27" as="geometry" />
        </mxCell>
        <mxCell id="QeXtSOEKIecsUs-c_dBP-33" value="" style="endArrow=none;html=1;rounded=0;entryX=0;entryY=1;entryDx=0;entryDy=0;exitX=0.681;exitY=0.2;exitDx=0;exitDy=0;exitPerimeter=0;" edge="1" parent="1" source="tkZ1fv5aqk3dEGbZUyPK-27" target="QeXtSOEKIecsUs-c_dBP-32">
          <mxGeometry relative="1" as="geometry">
            <mxPoint x="400" y="220" as="sourcePoint" />
            <mxPoint x="560" y="220" as="targetPoint" />
          </mxGeometry>
        </mxCell>
        <mxCell id="QeXtSOEKIecsUs-c_dBP-34" value="Data de pagamento" style="ellipse;whiteSpace=wrap;html=1;align=center;" vertex="1" parent="1">
          <mxGeometry x="531.5" y="160.8" width="80.5" height="32.2" as="geometry" />
        </mxCell>
        <mxCell id="QeXtSOEKIecsUs-c_dBP-35" value="" style="endArrow=none;html=1;rounded=0;entryX=0.5;entryY=1;entryDx=0;entryDy=0;exitX=0;exitY=0;exitDx=0;exitDy=0;" edge="1" parent="1" source="tkZ1fv5aqk3dEGbZUyPK-27" target="QeXtSOEKIecsUs-c_dBP-34">
          <mxGeometry relative="1" as="geometry">
            <mxPoint x="564.5" y="243" as="sourcePoint" />
            <mxPoint x="497.58400000000006" y="221.75" as="targetPoint" />
          </mxGeometry>
        </mxCell>
      </root>
    </mxGraphModel>
  </diagram>
</mxfile>
